<?xml version="1.0" encoding="utf-8"?>
<!-- Generator: Adobe Illustrator 21.1.0, SVG Export Plug-In . SVG Version: 6.00 Build 0)  -->
<svg version="1.1" xmlns="http://www.w3.org/2000/svg" xmlns:xlink="http://www.w3.org/1999/xlink" x="0px" y="0px"
	 viewBox="0 0 512 512" style="enable-background:new 0 0 512 512;" xml:space="preserve">
<style type="text/css">
	.st0{fill:#6FFFDD;}
	.st1{fill:#22B369;}
	.st2{fill:#22D275;}
	.st3{fill:#22E67F;}
	.st4{fill:#FBC439;}
	.st5{fill:#FDDA3F;}
	.st6{fill:#FFFFFF;}
</style>
<g id="Layer_1">
	<path class="st0" d="M434,451H78c-13.8,0-25-11.2-25-25V256v-8V70c0-13.8,11.2-25,25-25h356c13.8,0,25,11.2,25,25v356
		C459,439.8,447.8,451,434,451z"/>
	<path class="st1" d="M53,241c0,0,56-31,116-23c98,13.1,114,50,186,60c67.4,9.4,104-18,104-18v164c0,14.9-12.1,27-27,27H76.5
		c-13,0-23.5-10.5-23.5-23.5V241z"/>
	<g>
		<g>
			<path class="st2" d="M237,476.6c3.9,6.9-66.7-4.7-111-43c-39.1-33.7-37-161-37-161s47-6.5,87,19c36,23,53.1,67.3,57,83.9
				C238.8,400.2,237,476.6,237,476.6z"/>
			<path class="st3" d="M204,471.2c2.9,5.2-50.8-3.6-84.5-32.4c-29.7-25.5-28.2-121.5-28.2-121.5s35.8-4.9,66.2,14.3
				C185,349,198,382.4,201,395C205.4,413.5,204,471.2,204,471.2z"/>
		</g>
		<g>
			<path class="st2" d="M236.6,476.1c-4.9,8.8,85.2-6,141.8-54.9c49.9-43.1,47.3-205.6,47.3-205.6s-60.1-8.3-111.1,24.3
				c-46,29.4-67.8,85.9-72.8,107.2C234.3,378.5,236.6,476.1,236.6,476.1z"/>
			<path class="st3" d="M278.6,469.2c-3.7,6.7,64.8-4.6,107.9-41.4c38-32.5,36-155.1,36-155.1s-45.7-6.3-84.6,18.3
				c-35,22.2-51.6,64.8-55.4,80.9C276.9,395.5,278.6,469.2,278.6,469.2z"/>
		</g>
	</g>
	<g>
		
			<rect x="352.5" y="96.1" transform="matrix(0.7071 0.7071 -0.7071 0.7071 205.5625 -235.3438)" class="st4" width="68.6" height="68.6"/>
		<g>
			<rect x="352.5" y="96" class="st4" width="68.6" height="68.6"/>
			<g>
				<path class="st5" d="M362.6,154.6L362.6,154.6c-13.4-13.4-13.4-35.1,0-48.5l0,0c13.4-13.4,35.1-13.4,48.5,0l0,0
					c13.4,13.4,13.4,35.1,0,48.5l0,0C397.7,168,376,168,362.6,154.6z"/>
			</g>
		</g>
	</g>
</g>
<g id="Layer_2">
</g>
<g id="Layer_3">
	<g>
		<circle class="st6" cx="130.5" cy="118.5" r="32.5"/>
		<path class="st6" d="M170.5,151.5h-38c-9.6,0-17.5-7.9-17.5-17.5v0c0-9.6,7.9-17.5,17.5-17.5h38c9.6,0,17.5,7.9,17.5,17.5v0
			C188,143.7,180.1,151.5,170.5,151.5z"/>
	</g>
	<g>
		<circle class="st6" cx="253.6" cy="168.9" r="17.4"/>
		<path class="st6" d="M232.3,186.5h20.3c5.1,0,9.3-4.2,9.3-9.3v0c0-5.1-4.2-9.3-9.3-9.3h-20.3c-5.1,0-9.3,4.2-9.3,9.3v0
			C222.9,182.3,227.1,186.5,232.3,186.5z"/>
	</g>
</g>
<g id="Layer_4">
	<g>
		<circle class="st6" cx="231.9" cy="110.7" r="9"/>
		<circle class="st6" cx="246.7" cy="106.4" r="13.2"/>
		<circle class="st6" cx="262.3" cy="101.8" r="17.8"/>
		<circle class="st6" cx="282.5" cy="106.4" r="13.2"/>
		<rect x="231.9" y="112.3" class="st6" width="52.1" height="7.4"/>
	</g>
</g>
</svg>
